<svg width="20" height="20" viewBox="0 0 20 20" fill="none" xmlns="http://www.w3.org/2000/svg">
<path d="M16.475 11.4584H13.1083C11.4333 11.4584 10.625 10.6834 10.625 9.08335V3.41669C10.625 1.81669 11.4417 1.04169 13.1083 1.04169H16.475C18.15 1.04169 18.9583 1.81669 18.9583 3.41669V9.08335C18.9583 10.6834 18.1417 11.4584 16.475 11.4584ZM13.1083 2.29169C12.05 2.29169 11.875 2.57502 11.875 3.41669V9.08335C11.875 9.92502 12.05 10.2084 13.1083 10.2084H16.475C17.5333 10.2084 17.7083 9.92502 17.7083 9.08335V3.41669C17.7083 2.57502 17.5333 2.29169 16.475 2.29169H13.1083Z" fill="#44A15B"/>
<path d="M16.475 18.9583H13.1083C11.4333 18.9583 10.625 18.1833 10.625 16.5833V15.0833C10.625 13.4833 11.4417 12.7083 13.1083 12.7083H16.475C18.15 12.7083 18.9583 13.4833 18.9583 15.0833V16.5833C18.9583 18.1833 18.1417 18.9583 16.475 18.9583ZM13.1083 13.9583C12.05 13.9583 11.875 14.2417 11.875 15.0833V16.5833C11.875 17.425 12.05 17.7083 13.1083 17.7083H16.475C17.5333 17.7083 17.7083 17.425 17.7083 16.5833V15.0833C17.7083 14.2417 17.5333 13.9583 16.475 13.9583H13.1083Z" fill="#44A15B"/>
<path d="M6.8915 18.9584H3.52484C1.84984 18.9584 1.0415 18.1834 1.0415 16.5834V10.9167C1.0415 9.31669 1.85817 8.54169 3.52484 8.54169H6.8915C8.5665 8.54169 9.37484 9.31669 9.37484 10.9167V16.5834C9.37484 18.1834 8.55817 18.9584 6.8915 18.9584ZM3.52484 9.79169C2.4665 9.79169 2.2915 10.075 2.2915 10.9167V16.5834C2.2915 17.425 2.4665 17.7084 3.52484 17.7084H6.8915C7.94984 17.7084 8.12484 17.425 8.12484 16.5834V10.9167C8.12484 10.075 7.94984 9.79169 6.8915 9.79169H3.52484Z" fill="#44A15B"/>
<path d="M6.8915 7.29169H3.52484C1.84984 7.29169 1.0415 6.51669 1.0415 4.91669V3.41669C1.0415 1.81669 1.85817 1.04169 3.52484 1.04169H6.8915C8.5665 1.04169 9.37484 1.81669 9.37484 3.41669V4.91669C9.37484 6.51669 8.55817 7.29169 6.8915 7.29169ZM3.52484 2.29169C2.4665 2.29169 2.2915 2.57502 2.2915 3.41669V4.91669C2.2915 5.75835 2.4665 6.04169 3.52484 6.04169H6.8915C7.94984 6.04169 8.12484 5.75835 8.12484 4.91669V3.41669C8.12484 2.57502 7.94984 2.29169 6.8915 2.29169H3.52484Z" fill="#44A15B"/>
</svg>
