<svg width="32" height="33" viewBox="0 0 32 33" fill="none" xmlns="http://www.w3.org/2000/svg">
<rect x="0.5" y="1" width="31" height="31" rx="3.5" stroke="#D8DFDA"/>
<path d="M24.9999 11.23C24.9799 11.23 24.9499 11.23 24.9199 11.23C19.6299 10.7 14.3499 10.5 9.11992 11.03L7.07992 11.23C6.65992 11.27 6.28992 10.97 6.24992 10.55C6.20992 10.13 6.50992 9.77001 6.91992 9.73001L8.95992 9.53001C14.2799 8.99001 19.6699 9.20001 25.0699 9.73001C25.4799 9.77001 25.7799 10.14 25.7399 10.55C25.7099 10.94 25.3799 11.23 24.9999 11.23Z" fill="#E03015"/>
<path d="M12.5 10.22C12.46 10.22 12.42 10.22 12.37 10.21C11.97 10.14 11.69 9.75 11.76 9.35L11.98 8.04C12.14 7.08 12.36 5.75 14.69 5.75H17.31C19.65 5.75 19.87 7.13 20.02 8.05L20.24 9.35C20.31 9.76 20.03 10.15 19.63 10.21C19.22 10.28 18.83 10 18.77 9.6L18.55 8.3C18.41 7.43 18.38 7.26 17.32 7.26H14.7C13.64 7.26 13.62 7.4 13.47 8.29L13.24 9.59C13.18 9.96 12.86 10.22 12.5 10.22Z" fill="#E03015"/>
<path d="M19.2099 27.25H12.7899C9.2999 27.25 9.1599 25.32 9.0499 23.76L8.3999 13.69C8.3699 13.28 8.6899 12.92 9.0999 12.89C9.5199 12.87 9.8699 13.18 9.8999 13.59L10.5499 23.66C10.6599 25.18 10.6999 25.75 12.7899 25.75H19.2099C21.3099 25.75 21.3499 25.18 21.4499 23.66L22.0999 13.59C22.1299 13.18 22.4899 12.87 22.8999 12.89C23.3099 12.92 23.6299 13.27 23.5999 13.69L22.9499 23.76C22.8399 25.32 22.6999 27.25 19.2099 27.25Z" fill="#E03015"/>
<path d="M17.6601 21.75H14.3301C13.9201 21.75 13.5801 21.41 13.5801 21C13.5801 20.59 13.9201 20.25 14.3301 20.25H17.6601C18.0701 20.25 18.4101 20.59 18.4101 21C18.4101 21.41 18.0701 21.75 17.6601 21.75Z" fill="#E03015"/>
<path d="M18.5 17.75H13.5C13.09 17.75 12.75 17.41 12.75 17C12.75 16.59 13.09 16.25 13.5 16.25H18.5C18.91 16.25 19.25 16.59 19.25 17C19.25 17.41 18.91 17.75 18.5 17.75Z" fill="#E03015"/>
</svg>
