<svg width="32" height="33" viewBox="0 0 32 33" fill="none" xmlns="http://www.w3.org/2000/svg">
<rect x="0.5" y="1" width="31" height="31" rx="3.5" stroke="#D8DFDA"/>
<path d="M19 27.25H13C7.57 27.25 5.25 24.93 5.25 19.5V13.5C5.25 8.07 7.57 5.75 13 5.75H15C15.41 5.75 15.75 6.09 15.75 6.5C15.75 6.91 15.41 7.25 15 7.25H13C8.39 7.25 6.75 8.89 6.75 13.5V19.5C6.75 24.11 8.39 25.75 13 25.75H19C23.61 25.75 25.25 24.11 25.25 19.5V17.5C25.25 17.09 25.59 16.75 26 16.75C26.41 16.75 26.75 17.09 26.75 17.5V19.5C26.75 24.93 24.43 27.25 19 27.25Z" fill="#8FD223"/>
<path d="M12.5001 22.19C11.8901 22.19 11.3301 21.97 10.9201 21.57C10.4301 21.08 10.2201 20.37 10.3301 19.62L10.7601 16.61C10.8401 16.03 11.2201 15.28 11.6301 14.87L19.5101 6.99C21.5001 5 23.5201 5 25.5101 6.99C26.6001 8.08 27.0901 9.19 26.9901 10.3C26.9001 11.2 26.4201 12.08 25.5101 12.98L17.6301 20.86C17.2201 21.27 16.4701 21.65 15.8901 21.73L12.8801 22.16C12.7501 22.19 12.6201 22.19 12.5001 22.19ZM20.5701 8.05L12.6901 15.93C12.5001 16.12 12.2801 16.56 12.2401 16.82L11.8101 19.83C11.7701 20.12 11.8301 20.36 11.9801 20.51C12.1301 20.66 12.3701 20.72 12.6601 20.68L15.6701 20.25C15.9301 20.21 16.3801 19.99 16.5601 19.8L24.4401 11.92C25.0901 11.27 25.4301 10.69 25.4801 10.15C25.5401 9.5 25.2001 8.81 24.4401 8.04C22.8401 6.44 21.7401 6.89 20.5701 8.05Z" fill="#8FD223"/>
<path d="M23.8501 14.33C23.7801 14.33 23.7101 14.32 23.6501 14.3C21.0201 13.56 18.9301 11.47 18.1901 8.84C18.0801 8.44 18.3101 8.03 18.7101 7.91C19.1101 7.8 19.5201 8.03 19.6301 8.43C20.2301 10.56 21.9201 12.25 24.0501 12.85C24.4501 12.96 24.6801 13.38 24.5701 13.78C24.4801 14.12 24.1801 14.33 23.8501 14.33Z" fill="#8FD223"/>
</svg>
